<?xml version="1.0" encoding="utf-8"?>
<!-- Generator: Adobe Illustrator 25.2.1, SVG Export Plug-In . SVG Version: 6.00 Build 0)  -->
<svg version="1.1" id="Layer_1" xmlns="http://www.w3.org/2000/svg" xmlns:xlink="http://www.w3.org/1999/xlink" x="0px" y="0px"
	 viewBox="0 0 136.1 136.1" style="enable-background:new 0 0 136.1 136.1;" xml:space="preserve">
<style type="text/css">
	.st0{fill:#E98A00;}
	.st1{fill:#99B400;}
	.st2{fill:#EF3F64;}
</style>
<path class="st0" d="M24,108.6c-0.9-0.1-3.4,0.9-6.4,1.6c-3,0.7-6.4,1.1-9.1-0.1c-1.4-2.2-1.2-4.1-0.1-5.7c1.1-1.6,3.1-2.8,5.2-3.5
	c-1.2-2-3.5-1.6-5.7-1.2c-2.3,0.3-4.6,0.6-5.7-1.8C0.6,94,1.4,90.2,3.7,87.7c2.3-2.4,6.2-3.5,10.8-1.8c3.8,7,10.3,13.9,18.6,19.1
	s18.6,8.7,29.9,9c-10.2-1.5-20.8-6-29.7-12s-16.2-13.5-20-20.9c3.7-2.4,6.6-4.2,9.4-4.8s5.4-0.1,8.7,2.1c0.3,2.2,0.7,3.4,0.5,4.5
	c-0.2,1.2-1,2.3-3,4.4c1.7-0.1,3.4-1.2,5.1-1.9c1.7-0.7,3.4-0.9,5.2,0.7c0.6,1.3,0.9,2.5,0.6,3.7s-1.2,2.6-2.9,4.3
	c3.1,0.3,5.7-1.6,8.3-3.2c2.6-1.6,5.4-2.9,8.9-1.2c-0.3,1.7-0.6,4.1-1.4,6.3c-0.8,2.2-2.1,4.2-4.3,4.9c3.3-0.5,6-2.1,8.7-3.8
	c2.7-1.7,5.2-3.6,8-4.5c2.1,0.5,2.1,2.5,1.4,4.7c-0.8,2.2-2.4,4.6-3.5,6c2.2-1.8,4.5-3.4,7-5c2.5-1.5,5.3-3,8.3-4.7
	c1.9,0.5,3,2.7,2.9,5.4c-0.1,1.8-0.1,3.2-2,5.5c2.5-0.1,5.7,1,9.3,2c-0.9,4.7-3,7.9-5.7,9.6c-2.6,1.8-5.8,2.1-8.5,0.9
	c-3.3,1.4-1.4,3.7,0,6.3c1.4,2.6,2.5,5.4-2.3,7.7c-8.6,1.6-12.4,0-14.6-2.4c-2.2-2.4-3-5.5-5.5-6.9c-1.8,2.5-1.8,5.2-3,7.5
	c-1.2,2.4-3.5,4.4-9.9,5.6c-6.1-2.8-6.9-5.3-6-8s3.3-5.5,3.6-8.7c-3.6,0.3-5.2,1.8-7.1,3.1s-4.2,2.4-9.3,1.8
	c-3.7-3.6-4.1-5.7-2.9-7.7C18.7,113.3,21.5,111.5,24,108.6"/>
<path class="st1" d="M117.8,32.2c3.1,33-11.9,36.5-14.5,78.1C86.4,101.8,83.5,83.4,92,61.9c8.4-24.3,18-24.9,20.3-47.5
	c15.3,16.2,23.2,23.4,22.5,47s-11.5,36-21.4,48.6c-2.8-20.6,0.6-28.7,3.9-39.5S123.1,46.8,117.8,32.2"/>
<path class="st2" d="M47,1.3c8.1,9.7,6.7,18.9,6.7,28.3c9.6-6.2,3.6-17.2,10.8-21s13.1,4.3,19.4,7.3C81,22.6,66.5,34.5,58.4,36.2
	c5.3,7.9,18.6-3.3,24.5,2.5s-1.6,15.4-3.6,23.8C70,63,58,52.8,51.6,42.3c-5.9,8.3,6.3,19.4,0.7,26.2s-13.8,1.9-21.6,0.7
	c-4.8-11.8,7.7-22.3,13.8-31.6c-4.2-1.5-8.7,1.4-13.2,4.6c-3.4,2.4-8.9,6.8-12.1,8c-0.3,0.1-2.1-3.5-2.5-4
	c-7.9-12.8-0.3-20,9.9-21.1c6.4-0.7,13.9,1,19.2,5.3c-1.3-8.7-10.3-9.2-16.6-14.5C27.6,8.1,40.9,4,47,1.3"/>
</svg>